<?xml version="1.0" encoding="UTF-8"?>
<svg id="Layer_1" xmlns="http://www.w3.org/2000/svg" version="1.1" viewBox="0 0 350 350">
  <!-- Generator: Adobe Illustrator 29.2.1, SVG Export Plug-In . SVG Version: 2.1.0 Build 116)  -->
  <defs>
    <style>
      .st0 {
        fill: #838383;
      }
    </style>
  </defs>
  <path class="st0" d="M53.05,257.1c.41-5.83-.56-12.38,0-18.12,2.5-25.66,36.79-31.56,55.62-42.82,4.19-2.51,6.16-3.48,6.78-8.95s-1.16-4.23-4.24-7.1c-5.38-5-9.69-11.14-12.61-17.9-1.2-2.79-2.58-9.43-3.56-11.1-.29-.49-2.84-2.25-3.76-3.51-3.59-4.89-4.87-13.75-1.6-19.08.68-1.11,2.36-2.25,2.49-3.27.19-1.44-.88-4.91-.96-6.65-.4-8.61-.38-22.75,7.66-28.09,1.28-.85,3.38-1.11,4.02-1.7.59-.54,1.36-2.98,2.15-4.05,10.29-13.99,44.18-9.58,57.35-1.1,13.63,8.78,13.22,27.55,12.32,42.02,7.74,5.87,5.25,19.12-1.53,24.84-.58.49-1.76.64-2.12,1.22-.5.82-1.61,6.05-2.27,7.74-2.21,5.72-5.6,11.94-9.65,16.57-1.33,1.53-8.09,6.93-8.27,7.46-.82,2.38.85,8.69,2.81,10.38,2.09,1.8,9.76,5.42,12.67,6.88,18.84,9.4,45.26,14.65,46.91,39.85.94,14.42.03,30.23-16.95,33.63l-126.75-.05c-8.95-1.56-14.23-8.79-16.5-17.11Z"/>
  <path class="st0" d="M297.13,257.1c-1.79,5.83-4.57,11.74-10.05,14.98-1,.59-4.53,2.18-5.44,2.18h-69.84c9.59-9.45,10.1-23.32,8.58-35.99-2.42-20.1-15.98-28.88-33.36-36.01-.24-1.11.15-.76.61-1.06,4.85-3.13,13.93-5.71,15.74-11.42.48-1.52,1.64-4.65-.4-5.13-7.62-1.79-14.33-3.01-20.87-7.73-1.55-1.12-7-6.04-7-7.79,0-.51,4.43-6.61,5.14-8.68,1-2.92.56-5.51,1.17-7.89.22-.84,1.55-2.17,2.04-3.2,2.95-6.26,4.28-13.19,2.38-20.04-.65-2.33-3.35-5.75-3.57-6.91-.63-3.29.17-9.16.01-12.88-.08-1.93-1.25-5.92-.88-7.48,1.08-4.5,9.98-11.9,14.06-14.11,1.19-.65,4.7-1.56,5.28-2.11s1.58-3.4,2.73-4.66c7.1-7.76,25.17-5.75,33.94-1.98,23.62,10.16,32.58,38.23,26.14,62.06-2.15,7.97-5.52,11.65-1.76,20.35.79,1.82,5.02,6.93,4.79,7.89-.27,1.12-3.21,4.45-4.22,5.37-6.66,6.08-16.14,8.53-24.76,10.28.04,7,3.11,8.65,8.41,11.78,14.78,8.75,43.36,16.69,49.26,33.69l1.89,7.88v18.59Z"/>
</svg>