<?xml version="1.0" encoding="UTF-8"?>
<svg id="Layer_1" data-name="Layer 1" xmlns="http://www.w3.org/2000/svg" viewBox="0 0 237.37 181.87">
  <defs>
    <style>
      .cls-1 {
        fill: #fff;
      }
    </style>
  </defs>
  <path class="cls-1" d="M237.37,35.79v140.01c-1.62,3.19-4.26,5.98-8.11,6.07-4.79.11-14.56-2.86-20.01-3.67-21.23-3.17-43.51-3.69-64.68.07-2.45.44-4.97.89-7.33,1.71-.55-.65,3.32-3.65,3.95-4.16,18.4-14.85,37.7-16.36,60.25-18.1,9.95-.77,21.1-8.84,21.1-19.7V29.3h6.72c3.32,0,7.01,3.51,8.11,6.49Z"/>
  <path class="cls-1" d="M112.2,172.55c-.81.2-.93-.33-1.39-.69-2.17-1.66-4.39-4.38-6.73-6.25-16.28-13.01-36.52-18.44-57.02-20.41-4.42-.42-12.12.39-15.68-1.94-1.72-1.12-2.51-2.75-3.33-4.55V6.1C30.41-.35,36.04-.16,41.95.09c23.6,1.01,49.02,9.23,64.2,28.06,1.17,1.45,6.04,7.9,6.04,9.26v135.14Z"/>
  <path class="cls-1" d="M125.18,172.55V37.41c0-1.36,4.87-7.81,6.04-9.26C146.38,9.34,171.83,1.1,195.42.09c5.91-.25,11.54-.45,13.92,6.01v132.62c-.82,1.8-1.62,3.43-3.33,4.55-3.56,2.32-11.27,1.51-15.68,1.94-20.49,1.97-40.74,7.4-57.02,20.41-2.34,1.87-4.56,4.59-6.73,6.25-.47.36-.58.89-1.39.69Z"/>
  <path class="cls-1" d="M14.84,29.3v108.72c0,4.65,3.79,11.08,7.2,14.13,7.96,7.12,17.1,5.1,26.87,6.05,18.37,1.77,37.63,8.45,51.23,21.1.1,1.22-.2.46-.81.35-23.74-4.41-43.91-5.18-67.97-1.91-6.34.86-17.78,4.27-23.25,4.15-3.56-.08-6.78-2.77-7.9-6.05l-.22-138.87c.05-3.6,4.72-7.65,8.11-7.65h6.72Z"/>
</svg>