<?xml version="1.0" encoding="UTF-8"?>
<svg id="Layer_1" xmlns="http://www.w3.org/2000/svg" version="1.1" viewBox="0 0 28.7 41.7">
  <!-- Generator: Adobe Illustrator 29.7.1, SVG Export Plug-In . SVG Version: 2.1.1 Build 8)  -->
  <defs>
    <style>
      .st0 {
        fill: #5695f6;
      }

      .st1 {
        fill: #48b564;
      }

      .st2 {
        fill: #fcc60e;
      }

      .st3 {
        fill: #ed5748;
      }

      .st4 {
        fill: #2c85eb;
      }
    </style>
  </defs>
  <path class="st1" d="M26.1,22.7h0s-3.8,5.5-6.9,9.6c-2.7,3.5-3.5,6.6-3.8,8.1,0,.5-.5.9-1.1.9s-1-.4-1.1-.9c-.2-1.5-1-4.5-3.8-8.1-.4-.5-.9-1.1-1.3-1.7l10.4-12.3,8.3-9.9c.9,1.9,1.4,4.1,1.4,6.4s-.8,5.6-2.2,7.9Z"/>
  <path class="st2" d="M18.6,18.3l-10.4,12.3c-2.8-3.8-5.7-7.9-5.7-7.9h0c-.3-.5-.6-1-.8-1.5l8.3-9.9c-.8.9-1.3,2.2-1.3,3.5,0,3,2.5,5.5,5.5,5.5s3.2-.8,4.2-2Z"/>
  <path class="st4" d="M18.7,1.1l-8.6,10.2L3.6,5.5C6.2,2.4,10,.3,14.3.3s3,.3,4.4.7Z"/>
  <path class="st3" d="M10.2,11.3h0c0,0-8.3,10-8.3,10-.9-1.9-1.4-4.1-1.4-6.4,0-3.5,1.2-6.8,3.3-9.3l6.6,5.7Z"/>
  <path class="st0" d="M18.6,18.3c.8-1,1.3-2.2,1.3-3.5,0-3-2.5-5.5-5.5-5.5s-3.2.8-4.2,2L18.7,1.1c3.6,1.2,6.5,3.9,8.2,7.4l-8.3,9.9Z"/>
</svg>