<?xml version="1.0" encoding="UTF-8"?>
<svg id="Layer_1" xmlns="http://www.w3.org/2000/svg" version="1.1" viewBox="0 0 24 24">
  <!-- Generator: Adobe Illustrator 29.8.1, SVG Export Plug-In . SVG Version: 2.1.1 Build 2)  -->
  <defs>
    <style>
      .st0 {
        fill: #666;
      }
    </style>
  </defs>
  <path class="st0" d="M14.8,22c-.2,0-.4,0-.5-.1s-.3-.2-.4-.4l-.9-1.6c0-.2-.1-.3-.2-.5v-8c0-.4,0-.7.2-1s.4-.5.7-.5.3,0,.4.1.2.2.3.3l1.5,2.7v2.1c0,.2,0,.4.2.5.2.1.3.2.5.2s.4,0,.5-.2.2-.3.2-.5v-2.4c0-.2-.1-.3-.2-.5l-3.8-7c-.3-.5-.4-1-.4-1.5s.1-1,.4-1.5c.2-.3.5-.4.8-.4s.6,0,.8.3l5.8,6.6c.1.2.2.3.3.5s.1.4.2.6l.9,10.8c0,.3,0,.5-.3.8s-.5.3-.7.3h-6.2v.3ZM3.1,22c-.3,0-.5-.1-.7-.3s-.3-.5-.3-.8l.9-10.8c0-.2,0-.4.2-.6s.2-.4.3-.5l5.8-6.6c.2-.2.5-.3.8-.3s.6,0,.8.4c.3.5.4,1,.4,1.5s-.1,1-.4,1.5l-3.8,7c0,.2,0,.3-.2.5s0,.3,0,.5v1.9c0,.2,0,.4.2.5.2,0,.3.2.5.2s.4,0,.5-.2.2-.3.2-.5v-2.1l1.5-2.7c0-.1.2-.2.3-.3s.2-.1.4-.1c.3,0,.5.2.7.5s.2.6.2,1v8c0,.1-.1.3-.2.5l-.9,1.6c0,.2-.2.3-.4.4s-.3.1-.5.1H3.1v-.3Z"/>
</svg>